<?xml version="1.0" encoding="utf-8"?>
<!-- Generator: Adobe Illustrator 19.0.0, SVG Export Plug-In . SVG Version: 6.00 Build 0)  -->
<svg version="1.1" id="Layer_1" xmlns="http://www.w3.org/2000/svg" xmlns:xlink="http://www.w3.org/1999/xlink" x="0px" y="0px"
	 viewBox="0 0 400 400" style="enable-background:new 0 0 400 400;" xml:space="preserve">
<style type="text/css">
	.st0{fill:#34495e}
	.st1{display:none;fill:#34495e;}
	.st2{display:none;}
	.st3{display:none;fill:#CD9600;}
	.st4{fill:#CD9600;}
	.st5{fill:none;stroke:#CD9600;stroke-width:11;}
	.st6{stroke:#CD9600;stroke-width:11;}
	.st7{fill:#FFFFFF;}
	.st8{fill:#CD9600;stroke:#34495e;stroke-width:4;}
</style>
<g id="Layer_2_1_">
	<circle class="st0" cx="200" cy="200" r="200"/>
	<rect class="st1" width="400" height="400"/>
</g>
<g id="Layer_2" class="st2">
	
		<image style="display:inline;overflow:visible;enable-background:new    ;" width="173" height="173" xlink:href="3B2A4803.jpg"  transform="matrix(2.3122 0 0 2.3122 0 0)">
	</image>
</g>
<image style="display:none;overflow:visible;" width="174" height="174" xlink:href="logo.png"  transform="matrix(2.3161 0 0 2.3161 0 -3)">
</image>
<g id="Layer_1_1_">
	<g>
		<path class="st3" d="M225.6,82.2l9.1,37.8l-60,1.7l1.6-13.1l-41,1.2l-4.6-21.9l20.4-20.6l82-2.3L225.6,82.2z"/>
		<path class="st4" d="M135.9,83.2l11.5-15.6c1.1-1.4,2.6-2.3,4.4-2.3l70.3-2c4.1-0.1,7,4.1,5.3,7.9l-3.2,7.3
			c-0.5,1.1-0.6,2.4-0.3,3.6l7,29.1c0.8,3.5-1.7,6.9-5.3,7l-46.5,1.3c-3.5,0.1-6.6,0.5-6.2-2.9l0.4-3.4c0.4-3.4-2.3-6.4-5.8-6.3
			l-20.7,0.6c-2.3,0.1-4.4-1.3-5.4-3.4l-6.2-15.1C134.6,86.9,134.8,84.9,135.9,83.2z"/>
		<path class="st4" d="M218,63.4l12-0.3c5-0.1,9.1,3.7,9.3,8.7l0.1,2c0.1,5-3.7,9.1-8.7,9.3l-12,0.3c-5,0.1-9.1-3.7-9.3-8.7l-0.1-2
			C209.1,67.6,213,63.5,218,63.4z"/>
		<path class="st5" d="M114.3,139.7c-15.5,0.4-28.3-11.7-28.8-27.2s11.7-28.3,27.2-28.8c15.5-0.4,28.3,11.7,28.8,27.2
			C141.9,126.4,129.7,139.3,114.3,139.7z"/>
		<path class="st6" d="M-15.9,0"/>
		<path class="st4" d="M120.1,104.2c-12.7,20.4-16.3,48.5-10.6,84.3l13-0.4c-0.8-26.7-1.4-51.1,8.1-67.4L120.1,104.2"/>
		<path class="st4" d="M115.7,176.3L115.7,176.3c3.6-0.1,6.6,3.8,6.8,8.8l0.1,2c0.1,5-2.6,9.1-6.2,9.2l0,0c-3.6,0.1-6.6-3.8-6.8-8.8
			l-0.1-2C109.3,180.5,112.1,176.4,115.7,176.3z"/>
	</g>
	<path class="st7" d="M207.6,155.4l-0.8-28c0,0-30.3,0.2-60.3,15.7c0,0,17.8,38.8,5.9,91.2c0,0-33.2,109,63.8,106.2l-3.9-137.9
		L207.6,155.4z"/>
	<path class="st7" d="M210.7,155.1l-0.8-28c0,0,30.3-1.6,61.1,12.3c0,0-15.6,39.8-0.7,91.4c0,0,39.3,106.9-57.7,109.7l-3.9-137.9
		L210.7,155.1z"/>
	<path class="st8" d="M208.8,147L208.8,147c5.7-0.2,10.4,3.7,10.5,8.7l0.8,27.9c0.1,5-4.3,9.1-10,9.2l0,0
		c-5.7,0.2-10.4-3.7-10.5-8.7l-0.8-27.9C198.6,151.2,203.1,147.1,208.8,147z"/>
	
		<rect x="206.3" y="126.2" transform="matrix(0.9996 -2.837845e-002 2.837845e-002 0.9996 -3.7912 5.9801)" class="st0" width="5" height="20.8"/>
</g>
</svg>
